<?xml version="1.0" standalone="no"?>
<!DOCTYPE svg PUBLIC "-//W3C//DTD SVG 20010904//EN"
 "http://www.w3.org/TR/2001/REC-SVG-20010904/DTD/svg10.dtd">
<svg version="1.0" xmlns="http://www.w3.org/2000/svg"
 width="433.000000pt" height="600.000000pt" viewBox="0 0 433.000000 600.000000"
 preserveAspectRatio="xMidYMid meet">

<g transform="translate(0.000000,600.000000) scale(0.100000,-0.100000)"
fill="#000000" stroke="none">
<path d="M1578 5983 c-17 -21 -428 -761 -428 -772 0 -4 159 -82 353 -173 269
-127 355 -164 364 -155 6 7 109 174 228 371 170 283 215 364 210 383 -20 81
-289 252 -520 329 -115 38 -184 44 -207 17z"/>
<path d="M2230 5234 c-124 -207 -231 -387 -237 -399 -12 -22 -6 -26 205 -135
119 -62 225 -120 236 -129 10 -9 28 -34 40 -56 30 -56 29 -239 -2 -374 -12
-52 -20 -96 -19 -98 4 -3 712 1023 736 1065 23 44 -21 110 -138 204 -186 150
-434 286 -539 295 l-57 5 -225 -378z"/>
<path d="M881 5094 c-42 -41 -816 -1231 -857 -1319 -31 -64 -31 -126 0 -190
12 -27 207 -313 431 -635 225 -322 515 -738 645 -925 l237 -340 -33 -225 c-18
-124 -74 -497 -124 -829 -49 -332 -90 -610 -90 -617 0 -12 179 -14 1155 -14
l1155 0 0 717 0 717 340 686 c227 461 346 711 359 761 31 113 57 487 33 477
-4 -1 -149 -149 -321 -328 -173 -179 -342 -354 -376 -388 l-62 -64 -319 165
c-270 140 -320 163 -326 149 -7 -17 -188 -973 -188 -994 0 -30 -14 13 -50 148
-207 792 -589 1304 -1203 1611 l-127 64 97 190 c54 104 104 189 111 189 7 0
36 -12 64 -26 304 -154 622 -130 813 61 108 107 174 279 129 332 -11 12 -318
165 -683 339 -758 362 -739 355 -810 288z m1276 -3623 c163 -65 241 -82 393
-88 100 -4 164 -1 244 12 59 9 110 14 113 12 2 -3 -72 -59 -165 -126 l-169
-120 -20 -118 c-11 -65 -47 -274 -79 -465 -32 -191 -61 -344 -64 -341 -3 2
-14 217 -26 477 l-21 473 -169 167 c-93 92 -162 166 -154 163 8 -3 61 -23 117
-46z"/>
<path d="M2850 4388 c-238 -326 -436 -603 -438 -615 -3 -15 8 -39 32 -71 78
-107 349 -343 434 -379 27 -11 37 -12 49 -2 8 7 227 249 486 537 545 605 508
547 423 672 -117 171 -449 450 -535 450 -11 0 -172 -212 -451 -592z"/>
<path d="M3460 3728 c-319 -352 -446 -498 -448 -517 -4 -38 59 -128 160 -229
85 -85 161 -142 188 -142 9 0 229 192 490 426 351 314 476 432 478 450 14 103
-308 505 -403 504 -14 0 -163 -159 -465 -492z"/>
</g>
</svg>
